<svg width="846" height="448" viewBox="0 0 846 448" fill="none" xmlns="http://www.w3.org/2000/svg">
<g clip-path="url(#clip0)">
<path opacity="0.1" d="M781.136 354.256C780.193 356.277 779.253 358.271 778.316 360.238C776.854 363.294 775.411 366.291 773.986 369.228C773.353 370.529 772.719 371.807 772.101 373.084C765.114 387.288 758.591 399.851 753.05 410.182C748.022 419.544 740.557 427.387 731.436 432.892C722.316 438.396 711.875 441.358 701.209 441.468L578.004 442.802H576.704L566.142 442.915L557.108 443.012L529.404 443.311H528.283L514.179 443.465H513.748L426.818 444.403L349.223 445.211L340.197 445.308L284.139 445.914H284.074L247.718 446.302H247.328L132.369 447.539L97.9791 447.911C90.6402 447.994 83.3322 446.952 76.3116 444.823C64.0943 441.151 53.1146 434.233 44.5537 424.815C29.7837 408.622 19.019 389.729 11.7884 369.228C10.743 366.269 9.76811 363.273 8.86361 360.238C-16.1674 276.042 14.3475 167.415 69.2678 94.7221C71.5697 91.6825 73.9095 88.7183 76.2872 85.8295L76.3441 85.7649C93.2345 65.1341 112.172 47.8987 132.345 35.6431C168.092 13.8886 207.698 7.76081 246.654 26.0229C279.614 41.4798 310.389 48.7475 340.221 50.72C343.236 50.9141 346.25 51.0596 349.248 51.1485C417.679 53.2908 481.812 28.7554 557.124 12.9185C560.122 12.2879 563.128 11.6655 566.158 11.0753C619.884 0.436551 679.484 -5.17385 750.361 6.62094C757.724 7.81793 764.99 9.54712 772.101 11.7948C775.227 12.7972 778.238 13.8751 781.136 15.0285C814.965 28.723 833.416 54.0264 841.255 85.7325C841.997 88.6752 842.639 91.669 843.181 94.7141C857.082 170.98 816.371 279.162 781.136 354.256Z" fill="white"/>
<g opacity="0.1">
<path opacity="0.1" d="M132.345 35.6431V447.628L97.9548 448C90.6158 448.083 83.3078 447.041 76.2872 444.912V85.7649H76.3441C93.2345 65.1098 112.172 47.8744 132.345 35.6431Z" fill="#F8F1F1"/>
<path opacity="0.1" d="M843.222 94.7221H69.2678C71.5697 91.6825 73.9095 88.7183 76.2872 85.8296V85.7649H841.296C842.038 88.6914 842.68 91.6771 843.222 94.7221Z" fill="#F8F1F1"/>
<path opacity="0.1" d="M781.136 15.0365V360.23H778.316C776.854 363.286 775.411 366.283 773.986 369.22C773.353 370.521 772.719 371.799 772.101 373.076V11.7705C775.226 12.773 778.238 13.8616 781.136 15.0365Z" fill="#F8F1F1"/>
<path opacity="0.1" d="M566.158 11.0511V442.947L557.124 443.044V12.8942C560.122 12.2637 563.128 11.6412 566.158 11.0511Z" fill="#F8F1F1"/>
<path opacity="0.1" d="M349.248 51.1242V445.292L340.221 445.389V50.6958C343.236 50.8898 346.25 51.003 349.248 51.1242Z" fill="#F8F1F1"/>
<path opacity="0.1" d="M778.316 360.238C776.854 363.294 775.411 366.291 773.986 369.228H11.7884C10.743 366.269 9.76812 363.273 8.86362 360.238H778.316Z" fill="#F8F1F1"/>
</g>
<path d="M187.346 214.901H171.91V261.515H187.346V214.901Z" fill="#3F3D56"/>
<path d="M602.766 212.476H587.33V261.789H602.766V212.476Z" fill="#3F3D56"/>
<path d="M701.209 431.411V441.921L577.784 443.053L576.468 443.077L529.558 443.505L528.437 443.521L514.179 443.643H513.757L426.843 444.443L284.172 445.761H284.05L247.775 446.1L247.385 446.108L86.1989 447.58V435.453L124.099 412.818L200.142 412.187L201.767 412.179L202.303 412.171L203.928 412.147L240.439 411.848L242.072 411.84L242.592 411.831L244.217 411.823L255.924 411.726L256.232 411.718L285.114 411.476H285.35L510.718 409.584L516.235 409.544H516.787L520.995 409.503L551.583 409.253L553.208 409.228L554.711 409.212H555.491L565.005 409.139L566.89 409.115L569.416 409.099L577.337 409.026L589.906 408.921L591.531 408.905L594.358 408.889H594.886L655.583 408.371L701.209 431.411Z" fill="#65617D"/>
<path opacity="0.2" d="M701.209 431.411V441.921L577.784 443.053L576.468 443.077L529.558 443.505L528.437 443.521L514.179 443.643H513.757L426.843 444.443L284.172 445.761H284.05L247.775 446.1L247.385 446.108L86.1989 447.58V435.453L124.099 412.818L200.142 412.187L201.767 412.179L202.303 412.171L203.928 412.147L240.439 411.848L242.072 411.84L242.592 411.831L244.217 411.823L255.924 411.726L256.232 411.718L285.114 411.476H285.35L510.718 409.584L516.235 409.544H516.787L520.995 409.503L551.583 409.253L553.208 409.228L554.711 409.212H555.491L565.005 409.139L566.89 409.115L569.416 409.099L577.337 409.026L589.906 408.921L591.531 408.905L594.358 408.889H594.886L655.583 408.371L701.209 431.411Z" fill="black"/>
<path d="M240.561 390.999V410.797C240.561 411.734 240.294 412.653 239.791 413.446C239.287 414.239 238.568 414.873 237.717 415.275C237.083 415.581 236.39 415.747 235.686 415.76L207.332 416.359C206.575 416.377 205.824 416.219 205.139 415.898C204.272 415.503 203.539 414.868 203.024 414.07C202.51 413.272 202.237 412.343 202.238 411.395V390.999H240.561Z" fill="#3F3D56"/>
<path opacity="0.1" d="M240.561 390.999V410.797C240.561 411.734 240.294 412.653 239.791 413.446C239.287 414.239 238.568 414.873 237.717 415.275C237.083 415.581 236.39 415.747 235.686 415.76L207.332 416.359C206.575 416.377 205.824 416.219 205.139 415.898C204.272 415.503 203.539 414.868 203.024 414.07C202.51 413.272 202.237 412.343 202.238 411.395V390.999H240.561Z" fill="black"/>
<path d="M242.186 390.999V410.797C242.186 411.734 241.919 412.653 241.416 413.446C240.912 414.239 240.193 414.873 239.342 415.275C238.708 415.581 238.015 415.747 237.311 415.76L208.957 416.359C208.2 416.377 207.449 416.219 206.764 415.898C205.897 415.503 205.163 414.868 204.649 414.07C204.135 413.272 203.862 412.343 203.863 411.395V390.999H242.186Z" fill="#3F3D56"/>
<path d="M591.531 390.999H553.208V416.464H591.531V390.999Z" fill="#3F3D56"/>
<path opacity="0.1" d="M591.531 390.999H553.208V416.464H591.531V390.999Z" fill="black"/>
<path d="M589.906 390.999H551.583V416.464H589.906V390.999Z" fill="#3F3D56"/>
<path opacity="0.1" d="M187.346 214.893V219.525L171.91 219.129V214.893H187.346Z" fill="black"/>
<path d="M288.949 84.3987L270.401 216.979C270.284 217.826 269.856 218.6 269.202 219.153C268.547 219.706 267.71 220 266.851 219.978L118.339 216.146L115.519 216.073C115.029 216.062 114.546 215.948 114.102 215.738C113.659 215.528 113.265 215.228 112.946 214.856C112.627 214.485 112.39 214.05 112.252 213.582C112.113 213.113 112.075 212.621 112.14 212.137L132.962 73.3476C133.097 72.4879 133.55 71.7095 134.233 71.1662C134.916 70.6229 135.778 70.3542 136.651 70.4131L285.699 80.4536C286.18 80.4813 286.65 80.6079 287.079 80.8254C287.508 81.043 287.888 81.3467 288.193 81.7173C288.498 82.088 288.723 82.5177 288.853 82.9792C288.983 83.4407 289.016 83.924 288.949 84.3987Z" fill="#65617D"/>
<path d="M142.931 80.1626L127.227 202.5L263.715 206.809L280.5 88.7803L142.931 80.1626Z" fill="#A8DADC"/>
<path d="M474.411 78.2709H316.791C314.399 78.2709 312.461 80.2 312.461 82.5797V214.085C312.461 216.464 314.399 218.394 316.791 218.394H474.411C476.802 218.394 478.741 216.464 478.741 214.085V82.5797C478.741 80.2 476.802 78.2709 474.411 78.2709Z" fill="#65617D"/>
<path d="M471.421 87.7051H320.309V204.384H471.421V87.7051Z" fill="#A8DADC"/>
<path opacity="0.1" d="M602.766 212.468V215.532L587.33 215.847V212.468H602.766Z" fill="black"/>
<path d="M672.416 209.881C672.438 210.216 672.392 210.552 672.28 210.869C672.168 211.185 671.993 211.476 671.766 211.724C671.538 211.972 671.262 212.171 670.955 212.31C670.648 212.449 670.316 212.525 669.979 212.533L517.892 215.661C517.26 215.674 516.647 215.449 516.175 215.031C515.703 214.612 515.408 214.032 515.349 213.406L502.277 78.1739C502.245 77.8383 502.281 77.4998 502.384 77.1788C502.487 76.8577 502.655 76.5608 502.877 76.3061C503.099 76.0514 503.37 75.8441 503.675 75.6969C503.979 75.5496 504.311 75.4655 504.649 75.4495L655.583 67.9797L657.207 67.8989C657.853 67.865 658.487 68.0822 658.975 68.5045C659.463 68.9268 659.767 69.5213 659.823 70.1625L672.416 209.881Z" fill="#65617D"/>
<path d="M510.962 83.3962L648.807 76.654L660.449 199.533L523.693 202.767L510.962 83.3962Z" fill="#A8DADC"/>
<path opacity="0.1" d="M672.416 209.881C672.438 210.216 672.392 210.552 672.28 210.869C672.168 211.185 671.993 211.476 671.766 211.724C671.538 211.972 671.262 212.171 670.955 212.31C670.648 212.449 670.316 212.525 669.979 212.533L655.583 67.9797L657.207 67.8989C657.853 67.865 658.487 68.0822 658.975 68.5045C659.463 68.9268 659.768 69.5213 659.823 70.1625L672.416 209.881Z" fill="black"/>
<path opacity="0.1" d="M136.675 70.405L118.339 216.146L115.519 216.073C115.029 216.062 114.546 215.948 114.102 215.738C113.659 215.528 113.265 215.228 112.946 214.856C112.627 214.485 112.39 214.05 112.252 213.582C112.113 213.113 112.075 212.621 112.14 212.137L132.962 73.3476C133.095 72.482 133.551 71.698 134.239 71.1525C134.928 70.6069 135.798 70.34 136.675 70.405Z" fill="black"/>
<path opacity="0.1" d="M187.346 247.707H171.91V261.515H187.346V247.707Z" fill="black"/>
<path opacity="0.1" d="M242.186 390.991V395.008L203.863 396.027V390.991H242.186Z" fill="black"/>
<path d="M309.82 252.517V388.492C309.811 389.322 309.48 390.117 308.898 390.711C308.316 391.306 307.526 391.655 306.692 391.686L150.99 395.809H150.95C150.102 395.798 149.292 395.458 148.692 394.862C148.092 394.265 147.751 393.459 147.74 392.615V252.517C147.751 251.673 148.092 250.867 148.692 250.271C149.292 249.674 150.102 249.334 150.95 249.324H306.611C307.459 249.334 308.269 249.674 308.869 250.271C309.468 250.867 309.81 251.673 309.82 252.517Z" fill="#65617D"/>
<path opacity="0.1" d="M150.99 249.324V395.809H150.95C150.102 395.798 149.292 395.458 148.692 394.862C148.092 394.265 147.751 393.459 147.74 392.615V252.517C147.751 251.673 148.092 250.867 148.692 250.271C149.292 249.674 150.102 249.334 150.95 249.324H150.99Z" fill="black"/>
<path d="M158.099 258.006H302.305V377.854L158.099 381.087V258.006Z" fill="#F1FAEE"/>
<path opacity="0.1" d="M602.766 247.707H587.33V261.789H602.766V247.707Z" fill="black"/>
<path opacity="0.1" d="M589.906 390.991V396.172L551.583 395.154V390.991H589.906Z" fill="black"/>
<path d="M640.479 252.517V392.615C640.469 393.466 640.122 394.278 639.513 394.876C638.905 395.474 638.085 395.809 637.23 395.809L481.495 391.686C480.661 391.655 479.872 391.306 479.289 390.711C478.707 390.117 478.377 389.322 478.367 388.492V252.517C478.378 251.673 478.719 250.867 479.319 250.271C479.918 249.674 480.728 249.334 481.576 249.324H637.238C638.091 249.326 638.91 249.662 639.516 250.259C640.123 250.857 640.469 251.668 640.479 252.517Z" fill="#65617D"/>
<path opacity="0.1" d="M640.479 252.517V392.615C640.469 393.466 640.122 394.278 639.513 394.876C638.905 395.474 638.085 395.809 637.23 395.809V249.324C638.085 249.324 638.905 249.659 639.513 250.256C640.122 250.854 640.469 251.666 640.479 252.517Z" fill="black"/>
<path d="M630.121 258.006H485.915V377.854L630.121 381.087V258.006Z" fill="#F1FAEE"/>
<path d="M474.338 252.517V388.492C474.328 389.322 473.997 390.117 473.415 390.711C472.833 391.306 472.043 391.655 471.21 391.686L315.507 395.809C314.653 395.809 313.832 395.474 313.224 394.876C312.615 394.278 312.268 393.466 312.258 392.615V252.517C312.268 251.673 312.61 250.867 313.209 250.271C313.809 249.674 314.619 249.334 315.467 249.324H471.128C471.976 249.334 472.786 249.674 473.386 250.271C473.986 250.867 474.327 251.673 474.338 252.517Z" fill="#65617D"/>
<path d="M322.616 258.006H466.823V377.854L322.616 381.087V258.006Z" fill="#F1FAEE"/>
<path opacity="0.1" d="M701.209 431.411V441.921L577.784 443.053L576.468 443.077L529.558 443.505L528.437 443.521L514.179 443.643H513.757L426.843 444.443L284.172 445.761H284.05L247.775 446.1L247.385 446.108L86.1989 447.58V435.453L250.724 434.378H251.114L284.416 434.152H284.57L514.553 432.64H514.788L514.927 432.632H515.308L519.2 432.608H520.386L580.904 432.204L584.479 432.187L585.275 432.179L701.209 431.411Z" fill="black"/>
<path d="M395.865 261.515C418.896 261.515 437.567 242.936 437.567 220.019C437.567 197.101 418.896 178.523 395.865 178.523C372.833 178.523 354.163 197.101 354.163 220.019C354.163 242.936 372.833 261.515 395.865 261.515Z" fill="#FBBEBE"/>
<path d="M437.575 304.902C437.575 304.902 356.738 314.603 364.456 304.902C367.251 301.394 368.023 290.997 367.869 279.154C367.82 275.557 367.69 271.83 367.503 268.119C366.609 250.334 364.456 232.953 364.456 232.953C364.456 232.953 435.138 199.808 427.013 226.082C423.764 236.696 424.828 251.603 427.298 265.597C428.021 269.68 428.858 273.681 429.735 277.481C431.876 286.748 434.493 295.901 437.575 304.902Z" fill="#FBBEBE"/>
<path opacity="0.1" d="M437.575 304.902C437.575 304.902 356.738 314.603 364.456 304.902C367.251 301.394 368.023 290.997 367.869 279.154C380.193 273.916 395.873 277.82 395.873 277.82C412.382 274.546 422.968 275.185 429.735 277.481C431.876 286.748 434.493 295.901 437.575 304.902Z" fill="black"/>
<path d="M284.139 446.674V445.995L426.818 444.451L513.749 443.643H513.992L513.903 444.839L514.025 443.643H514.179V443.505L515.292 432.632L515.715 428.517L515.845 427.232L515.958 426.157L520.979 409.495L526 392.858L530.225 378.848L536.675 357.441C536.675 357.441 533.019 348.953 530.988 346.528C528.957 344.102 526.926 327.53 526.926 327.53C526.926 327.53 509.589 311.095 502.009 309.203C498.832 308.395 492.56 307.319 485.898 305.969C483.404 305.468 480.845 304.935 478.383 304.353C476.994 304.037 475.629 303.706 474.321 303.374C471.775 302.742 469.267 301.97 466.806 301.062C465.516 300.596 464.289 299.974 463.15 299.211C457.179 294.854 442.214 294.361 441.637 294.361C441.636 294.342 441.636 294.323 441.637 294.304V294.231C441.658 293.892 441.658 293.552 441.637 293.213C441.637 292.889 441.637 292.509 441.564 292.081C441.564 291.951 441.564 291.814 441.507 291.677C441.467 291.386 441.418 291.078 441.345 290.755C441.32 290.611 441.288 290.467 441.247 290.326C441.012 289.352 440.671 288.406 440.232 287.505C440.175 287.376 440.102 287.238 440.037 287.109C439.638 286.362 439.176 285.651 438.656 284.983C438.55 284.845 438.436 284.7 438.314 284.562C437.649 283.782 436.909 283.067 436.105 282.428C435.885 282.259 435.658 282.081 435.422 281.919C435.291 281.813 435.152 281.716 435.008 281.628L434.285 281.159L433.61 280.771C433.017 280.448 432.392 280.132 431.709 279.833C431.498 279.736 431.271 279.647 431.043 279.558C430.816 279.469 430.458 279.332 430.158 279.219H430.109L429.499 278.976C429.036 278.823 428.565 278.685 428.07 278.548L427.314 278.354L426.502 278.168L425.689 277.998C424.877 277.836 424.007 277.691 423.098 277.578L422.171 277.465L421.221 277.368L420.238 277.287L418.84 277.206L417.216 277.149C410.049 277.149 402.903 277.905 395.897 279.405C391.03 278.327 386.045 277.871 381.062 278.047H380.356L379.543 278.095H379.023L377.975 278.192C377.626 278.192 377.268 278.265 376.919 278.313C376.57 278.362 376.204 278.402 375.855 278.459L375.319 278.548C374.79 278.637 374.254 278.734 373.694 278.847C373.515 278.879 373.336 278.92 373.157 278.968C372.451 279.122 371.744 279.308 371.045 279.518C370.696 279.615 370.346 279.728 369.997 279.849C369.818 279.898 369.648 279.963 369.477 280.027L368.957 280.213L368.445 280.415L367.836 280.658C367.527 280.787 367.227 280.925 366.926 281.07C366.755 281.143 366.585 281.224 366.422 281.313C366.26 281.402 366.089 281.474 365.935 281.563C364.098 282.508 362.4 283.699 360.89 285.104L360.475 285.5L360.069 285.913C359.931 286.05 359.801 286.195 359.671 286.341C359.142 286.917 358.648 287.524 358.192 288.16C358.062 288.33 357.941 288.499 357.819 288.677C357.303 289.434 356.836 290.222 356.421 291.038C356.316 291.232 356.218 291.434 356.121 291.628C355.458 292.994 354.914 294.414 354.496 295.872C354.344 296.411 354.206 296.95 354.082 297.489C354.082 297.489 336.882 305.04 322.616 310.505C318.822 311.96 315.247 313.277 312.258 314.272C311.388 314.563 310.576 314.83 309.82 315.08C308.181 315.67 306.476 316.061 304.743 316.244C303.926 316.258 303.111 316.333 302.305 316.471C295.749 317.53 284.513 322.13 283.286 326.746C283.187 327.114 283.159 327.498 283.205 327.877C283.205 327.877 283.205 327.934 283.205 327.966C284.018 333.625 278.331 332.817 278.331 332.817C278.331 332.817 276.299 347.773 273.456 351.815C271.401 354.725 269.995 361.217 269.816 366.116C269.714 367.642 269.835 369.175 270.174 370.667C270.174 370.707 270.174 370.748 270.174 370.78C270.499 371.863 269.719 374.822 268.395 378.614C266.957 382.777 264.86 387.951 262.846 392.834C259.807 400.206 256.947 406.9 256.769 408.371C256.696 409.026 256.484 410.198 256.192 411.71C255.006 417.87 252.373 429.6 251.074 434.346C250.107 437.887 248.701 442.737 247.734 446.068C247.734 446.165 247.678 446.262 247.653 446.351L284.074 445.995V446.674H284.188H284.139Z" fill="#457B9D"/>
<path opacity="0.1" d="M297.431 351.386C297.431 351.386 343.739 375.234 360.394 372.405L297.431 351.386Z" fill="black"/>
<path opacity="0.1" d="M391.673 341.685C391.673 341.685 436.763 356.237 451.793 358.258C466.823 360.279 391.673 341.685 391.673 341.685Z" fill="black"/>
<path opacity="0.1" d="M441.686 294.862C418.125 299.179 373.767 298.249 354.593 297.594C361.621 272.533 395.889 281.054 395.889 281.054C438.306 272.63 441.556 290.108 441.686 294.862Z" fill="black"/>
<path d="M441.686 293.245C418.125 297.562 373.767 296.632 354.593 295.977C361.621 270.916 395.889 279.437 395.889 279.437C438.306 271.013 441.556 288.491 441.686 293.245Z" fill="#A8DADC"/>
<path d="M566.751 403.731C566.751 403.731 594.504 399.487 595.048 411.613C595.593 423.739 580.896 432.212 580.896 432.212L566.751 403.731Z" fill="#FBBEBE"/>
<path opacity="0.1" d="M427.298 265.597C426.104 266.128 424.884 266.597 423.642 267.004C414.884 270.011 406.053 273.043 396.832 274.142C387.611 275.241 377.935 274.271 369.891 269.696C369.047 269.221 368.233 268.695 367.454 268.119C366.56 250.334 364.408 232.953 364.408 232.953C364.408 232.953 435.089 199.808 426.965 226.082C423.731 236.696 424.828 251.603 427.298 265.597Z" fill="black"/>
<path d="M384.426 155.159C383.266 155.464 382.051 155.495 380.878 155.249C379.704 155.004 378.604 154.488 377.666 153.745L379.356 156.081C378.36 156.195 377.351 156.092 376.4 155.778C375.449 155.463 374.578 154.946 373.848 154.262C373.695 156.353 373.782 158.455 374.108 160.527C371.312 160.661 368.559 159.802 366.341 158.102C366.298 158.831 366.48 159.556 366.864 160.179C367.247 160.802 367.813 161.293 368.486 161.586C365.677 161.252 362.842 161.947 360.51 163.54C358.178 165.133 356.508 167.516 355.812 170.244L360.053 170.632C356.72 171.341 353.729 173.157 351.571 175.782C350.271 177.399 349.28 179.468 349.849 181.441C350.418 183.413 353.164 184.675 354.658 183.268C352.532 185.793 350.987 188.751 350.13 191.934C349.274 195.117 349.128 198.447 349.703 201.692C350.088 203.074 350.215 204.516 350.076 205.944C349.808 207.278 348.963 208.434 348.541 209.736C347.728 212.096 348.5 214.659 349.223 217.011L353.034 229.477C354.415 233.98 355.788 238.491 357.591 242.848C358.868 245.603 359.954 248.442 360.841 251.345C361.865 255.257 361.905 259.542 364.091 262.962C365.589 265.114 367.591 266.87 369.924 268.079C377.959 272.655 387.667 273.625 396.864 272.525C406.061 271.426 414.884 268.394 423.634 265.387C425.578 264.804 427.443 263.99 429.191 262.962C435.243 259.017 436.592 250.949 437.721 243.843C438.981 235.92 440.662 228.014 443.644 220.56C445.415 216.122 447.706 211.619 447.316 206.866C446.821 200.552 441.8 195.435 440.557 189.226C440.141 187.151 440.16 185.012 440.614 182.945C440.999 181.713 441.215 180.435 441.255 179.145C441.117 176.542 438.972 174.537 436.958 172.864C432.587 169.231 428.075 165.798 423.423 162.564C423.187 160.948 425.397 160.252 426.396 158.975C427.81 157.172 426.347 154.31 424.202 153.47C422.058 152.629 419.653 153.179 417.419 153.736C417.564 152.599 417.337 151.444 416.77 150.445C416.204 149.446 415.328 148.656 414.274 148.192C413.22 147.728 412.043 147.615 410.919 147.869C409.795 148.124 408.783 148.733 408.035 149.606C407.442 148.252 406.494 147.081 405.291 146.217C404.087 145.352 402.673 144.825 401.194 144.69C395.808 144.27 395.702 148.369 392.258 150.624C388.813 152.88 385.969 149.905 383.321 147.738C382.834 148.963 382.68 150.293 382.874 151.596C383.068 152.899 383.603 154.128 384.426 155.159Z" fill="#3F3D56"/>
<path d="M587.33 427.984C587.33 427.984 586.607 429.697 585.275 432.179C583.259 435.998 580.806 439.57 577.963 442.826L577.744 443.061H576.427L529.518 443.489H528.397L528.258 443.327L519.159 432.583L515.731 428.533L515.593 428.364L515.3 428.024L515.138 427.83L514.927 427.579L508.256 419.705L510.694 409.6L514.845 392.575L514.951 392.163L515.763 388.929L516.34 386.504L518.274 378.597L524.903 351.394L536.683 357.457L549.105 379.285L555.776 391.007H559.431C560.122 391.007 561.706 392.332 563.299 393.86C563.867 394.402 564.436 394.976 564.923 395.477C566.37 396.965 567.515 398.242 567.515 398.242C567.515 398.242 573.438 398.371 575.03 403.012C575.112 403.236 575.18 403.466 575.233 403.699C575.762 405.523 576.45 407.297 577.289 409.002C578.337 411.274 579.653 413.853 580.985 416.431C583.463 421.161 585.982 425.663 586.908 427.296L587.022 427.499L587.33 427.984Z" fill="#457B9D"/>
<path opacity="0.1" d="M517.543 391.484L517.461 392.64V392.721L517.323 394.58L516.243 409.544L514.935 427.571L514.561 432.648L513.749 443.513V443.651L426.818 444.459L284.164 445.995V446.674H284.05V445.995V445.769L284.416 434.16L285.114 411.476L285.716 392.244L285.772 390.328C285.808 389.171 286.08 388.034 286.572 386.986C287.064 385.938 287.766 385 288.634 384.231C289.502 383.461 290.519 382.876 291.622 382.511C292.725 382.145 293.892 382.008 295.05 382.106C298.885 382.429 303.865 382.825 309.82 383.246L312.258 383.424C346.648 385.8 410.204 388.872 474.337 385.041C475.686 384.968 477.043 384.887 478.4 384.79C488.344 384.167 498.28 383.367 508.118 382.365C509.362 382.235 510.619 382.378 511.801 382.784C512.983 383.19 514.062 383.849 514.96 384.715C515.859 385.58 516.556 386.631 517.002 387.794C517.448 388.956 517.632 390.202 517.543 391.443V391.484Z" fill="black"/>
<path d="M284.139 446.674V445.995L426.818 444.451L513.749 443.643H513.992V443.505L514.805 432.64L515.154 427.79L516.486 409.511L517.534 395.041V394.685C517.583 394.018 517.553 393.348 517.445 392.688C517.45 392.661 517.45 392.634 517.445 392.607C517.222 391.243 516.664 389.955 515.82 388.856C514.926 387.715 513.754 386.819 512.415 386.253C511.076 385.687 509.614 385.47 508.167 385.623C498.329 386.625 488.393 387.425 478.448 388.048C477.092 388.145 475.735 388.226 474.386 388.298C410.253 392.09 346.697 389.018 312.306 386.682L309.869 386.504C303.914 386.083 298.934 385.695 295.099 385.364C292.99 385.187 290.889 385.794 289.203 387.067C287.516 388.34 286.364 390.19 285.967 392.26C285.885 392.697 285.836 393.141 285.821 393.586L285.269 411.5L284.513 434.192L284.156 445.801V446.028V446.707L284.139 446.674Z" fill="#3F3D56"/>
<path opacity="0.1" d="M517.786 397.151L516.787 409.544L515.3 428.016L514.926 432.64L514.114 442.996L514.065 443.513V443.651L513.943 444.847L514.033 443.651H513.797L426.867 444.459L284.164 445.995V445.769L284.562 434.16L285.374 411.476L285.894 396.399C285.92 395.541 286.161 394.703 286.595 393.962C287.029 393.221 287.643 392.599 288.38 392.155C289.3 391.594 290.376 391.339 291.451 391.427C293.157 391.564 295.253 391.726 297.699 391.904C301.672 392.195 306.571 392.535 312.274 392.89C322.835 393.553 336.086 394.265 351.271 394.847C393.517 396.463 450.55 397.005 504.722 392.284C507.16 392.074 509.678 391.839 512.14 391.605C513.114 391.508 514.096 391.693 514.967 392.138C515.214 392.261 515.448 392.407 515.666 392.575C516.373 393.085 516.933 393.771 517.291 394.564C517.374 394.721 517.442 394.887 517.494 395.057C517.738 395.727 517.837 396.44 517.786 397.151Z" fill="black"/>
<path opacity="0.1" d="M242.186 408.218V410.797C242.186 411.734 241.919 412.653 241.416 413.446C240.912 414.239 240.193 414.873 239.342 415.275L206.764 415.898C205.897 415.503 205.163 414.868 204.649 414.07C204.135 413.272 203.862 412.343 203.863 411.395V408.97L242.186 408.218Z" fill="black"/>
<path d="M242.592 416.795L200.142 417.604V410.595L242.592 409.786V416.795Z" fill="#3F3D56"/>
<path opacity="0.1" d="M242.592 416.795L200.142 417.604V410.595L242.592 409.786V416.795Z" fill="black"/>
<path d="M244.217 416.795L201.767 417.604V410.595L244.217 409.786V416.795Z" fill="#3F3D56"/>
<g opacity="0.1">
<path opacity="0.1" d="M384.759 152.508C383.965 151.481 383.438 150.276 383.223 148.999C383.028 150.248 383.145 151.525 383.565 152.718C383.968 152.681 384.367 152.611 384.759 152.508Z" fill="black"/>
<path opacity="0.1" d="M374.441 157.876C374.288 156.885 374.188 155.886 374.141 154.884C374.141 155.879 374.141 156.881 374.141 157.884L374.441 157.876Z" fill="black"/>
<path opacity="0.1" d="M440.654 184.852C440.699 184.132 440.797 183.416 440.947 182.71C441.331 181.481 441.549 180.206 441.597 178.919C441.578 178.63 441.535 178.343 441.467 178.062C441.328 178.806 441.109 179.549 440.947 180.285C440.622 181.785 440.524 183.324 440.654 184.852Z" fill="black"/>
<path opacity="0.1" d="M423.756 159.872L424.641 160.511C425.388 159.974 426.086 159.373 426.729 158.716C427.035 158.296 427.224 157.802 427.278 157.286C427.333 156.77 427.25 156.248 427.038 155.774C426.957 155.958 426.853 156.132 426.729 156.291C425.73 157.568 423.52 158.272 423.756 159.872Z" fill="black"/>
<path opacity="0.1" d="M356.998 167.649C356.702 168.239 356.465 168.856 356.291 169.493C357.562 168.787 358.931 168.272 360.354 167.965L356.998 167.649Z" fill="black"/>
<path opacity="0.1" d="M368.202 158.854C367.668 158.561 367.157 158.229 366.674 157.859C366.654 158.179 366.678 158.5 366.747 158.813C367.232 158.79 367.719 158.804 368.202 158.854Z" fill="black"/>
<path opacity="0.1" d="M447.633 206.486C447.3 210.406 445.464 214.182 443.977 217.901C440.995 225.354 439.314 233.26 438.054 241.191C436.925 248.297 435.617 256.365 429.524 260.302C427.783 261.337 425.919 262.152 423.975 262.727C415.217 265.743 406.386 268.766 397.165 269.866C387.944 270.965 378.268 270.003 370.225 265.427C367.893 264.216 365.891 262.46 364.391 260.31C362.222 256.89 362.182 252.606 361.142 248.693C360.255 245.788 359.169 242.946 357.892 240.189C356.096 235.839 354.715 231.296 353.342 226.825C352.069 222.67 350.799 218.512 349.532 214.352C349.115 213.1 348.805 211.815 348.606 210.512C348.289 212.581 348.906 214.748 349.532 216.777C350.799 220.943 352.069 225.101 353.342 229.251C354.715 233.754 356.096 238.264 357.892 242.614C359.169 245.371 360.255 248.213 361.142 251.118C362.165 255.031 362.206 259.316 364.391 262.735C365.891 264.886 367.893 266.642 370.225 267.853C378.268 272.428 387.968 273.39 397.165 272.291C406.361 271.191 415.184 268.168 423.975 265.152C425.919 264.577 427.783 263.762 429.524 262.727C435.576 258.79 436.925 250.722 438.054 243.616C439.314 235.686 440.995 227.779 443.977 220.326C445.748 215.896 448.039 211.393 447.649 206.631C447.649 206.583 447.633 206.534 447.633 206.486Z" fill="black"/>
<path opacity="0.1" d="M350.393 203.357C350.393 203.357 350.393 203.301 350.393 203.268C350.54 201.843 350.413 200.402 350.019 199.024C349.857 198.137 349.752 197.24 349.703 196.34C349.609 198.05 349.715 199.764 350.019 201.449C350.149 202.08 350.296 202.718 350.393 203.357Z" fill="black"/>
<path opacity="0.1" d="M352.871 183.583C353.496 182.539 354.205 181.546 354.991 180.616C353.505 182.031 350.759 180.77 350.182 178.805C349.969 179.6 349.969 180.436 350.182 181.231C350.382 181.824 350.736 182.354 351.208 182.767C351.681 183.18 352.254 183.462 352.871 183.583Z" fill="black"/>
</g>
<path opacity="0.1" d="M555.784 390.999C555.784 390.999 558.359 400.295 555.784 408.38C553.208 416.464 555.784 390.999 555.784 390.999Z" fill="black"/>
<path opacity="0.1" d="M566.751 400.481C566.751 400.481 567.832 412.284 565.395 414.378C562.957 416.472 566.751 400.481 566.751 400.481Z" fill="black"/>
<path d="M161.666 277.174L244.217 276.365" stroke="#E63946" stroke-width="2" stroke-miterlimit="10"/>
<path d="M161.666 287.255L244.217 286.454" stroke="#E63946" stroke-width="2" stroke-miterlimit="10"/>
<path d="M161.666 297.344L244.217 296.535" stroke="#E63946" stroke-width="2" stroke-miterlimit="10"/>
</g>
<defs>
<clipPath id="clip0">
<rect width="846" height="448" fill="white"/>
</clipPath>
</defs>
</svg>
